<?xml version="1.0" encoding="UTF-8"?>
<svg id="Layer_1" data-name="Layer 1"
  xmlns="http://www.w3.org/2000/svg" viewBox="0 0 1366 1555">
  <svg y="-200">
    <defs>
      <style>
      .cls-1 {
        fill: none;
      }

      .cls-2 {
        fill: #fff;
      }
      </style>
    </defs>
    <g id="body_Sporty_Tee" data-name="body Sporty Tee">
      <g id="_Skin-55" data-name=" Skin-55">
        <path id="_Skin-56" data-name=" Skin-56" class="cls-2" d="M370.31,1576.73c11.97,.74,23.94,1.33,35.91,1.77,156.53,5.83,312.93-12.01,469.37-15.92,54.48-1.43,108.67-.72,163.01,3.66,5.32,.43,11.41-5.3,10.76-10.76-10.04-86.65-22.6-173.08-29.11-260.09-.08-4.6,.66-9.18,2.17-13.53,.3-.34,1.84-4.15,3.22-4.39-.45,.33,1.59-.25,.29-.15,7.86-1.29,15.56-9.77,9.86-17.88-58.73-90.02-138.91-172.18-164.7-279.09-6.09-28.91-28.11-30.69-51.56-42.62-7.32-4.35-25.21-16.4-28.12-24.79-6.95-30.2,5.29-59.79-30.49-72.01-23.62-6.55-65.37-12.09-89.27-5.18-29.15,9.7-26.97,42.56-43.88,65.16-8.75,13.07-23.66,30.97-37.42,32.98-6.67,.97-11.59-12.53-18.25-11.6-103.85,25.22-245.35,197.29-289.98,292.54-10.06,29.98,22.38,20.93,20.39,51.06-2.46,57.16-7.83,130.34-4.64,187.57,2.99,33.22,.78,68.02,11.1,99.99-2.78,3.37,1.21,6.78,4.47,8.25,4.11,6.98,44.5,14.07,56.88,15.04Z"/>
        <path id="_Skin-57" data-name=" Skin-57" class="cls-1" d="M370.31,1576.73c11.97,.74,23.94,1.33,35.91,1.77,156.53,5.83,312.93-12.01,469.37-15.92,54.48-1.43,108.67-.72,163.01,3.66,5.32,.43,11.41-5.3,10.76-10.76-10.04-86.65-22.6-173.08-29.11-260.09-.08-4.6,.66-9.18,2.17-13.53,.3-.34,1.84-4.15,3.22-4.39-.45,.33,1.59-.25,.29-.15,7.86-1.29,15.56-9.77,9.86-17.88-58.73-90.02-138.91-172.18-164.7-279.09-6.09-28.91-28.11-30.69-51.56-42.62-7.32-4.35-25.21-16.4-28.12-24.79-6.95-30.2,5.29-59.79-30.49-72.01-23.62-6.55-65.37-12.09-89.27-5.18-29.15,9.7-26.97,42.56-43.88,65.16-8.75,13.07-23.66,30.97-37.42,32.98-6.67,.97-11.59-12.53-18.25-11.6-103.85,25.22-245.35,197.29-289.98,292.54-10.06,29.98,22.38,20.93,20.39,51.06-2.46,57.16-7.83,130.34-4.64,187.57,2.99,33.22,.78,68.02,11.1,99.99-2.78,3.37,1.21,6.78,4.47,8.25,4.11,6.98,44.5,14.07,56.88,15.04Z"/>
      </g>
      <path id="_Top-22" data-name=" Top-22" class="cls-2" d="M572.1,922.28c6.21-.87,6.62,17.4,12.64,18.19,27.93,39.21,71.2,52.22,121.25,52.22,53.13,0,96.21-15.98,129.24-47.94l3.03,1.28c15.63,6.65,28.42,13.35,32.84,34.31,25.79,106.92,105.97,189.08,164.7,279.1,5.7,8.11-2,16.6-9.86,17.88,1.3-.1-.74,.48-.29,.15-1.38,.24-2.92,4.05-3.22,4.39-.76,2.09-1.31,4.25-1.65,6.45,0,0-65.8,13.94-83.48,14.32-177.62,3.84-502.43-1.64-502.43-1.64l-136.05-51.46c-7.78-11.68-24.27-12.15-16.71-34.7,44.64-95.25,186.13-267.32,289.99-292.54Z"/>
      <path id="_Ink-19" data-name=" Ink-19" d="M446.86,1585.19c-7.25,0-13.81-.22-20.04-.68-.28-.01-.55-.13-.74-.33-2.95-.38-5.68-1.77-7.74-3.92-2.15-2.07-3.27-4.99-3.06-7.97v-.1c2.28-23.82,4.86-50.83,7.36-76.95,4.6-48.22,8.94-93.13,13.24-137.3l.64-6.61c1.45-14.9,2.92-30.75,3.65-46.35-3.66-.26-7.35-.59-10.96-.99-9.63-1.05-19.51-2.61-29.36-4.62-9.4-1.92-19.08-4.31-28.76-7.12-9.17-2.66-18.65-5.77-28.17-9.25-8.94-3.27-18.22-6.98-27.59-11.02l-1.47-.64c-2.19-.96-4.49-1.9-6.92-2.9h-.02c-1.17-.49-2.38-.99-3.6-1.49,.04,4.15-.03,8.37-.1,12.45-.04,2.77-.09,5.64-.1,8.46-.03,8.02,0,16.17,.03,24.06v.03c.01,3.4,.03,6.92,.04,10.37,.06,20.52,.72,42.4,2.15,70.95,3.26,65.61,6.08,101.27,8.18,125,.44,4.93,.96,9.94,1.46,14.78h0c.56,5.45,1.15,11.07,1.62,16.61,.35,2.82,.05,5.69-.88,8.37-1.05,2.65-3,4.84-5.51,6.18-.97,.59-2.09,.92-3.22,.94-1.57-.1-3.09-.54-4.47-1.3-2.79-1.31-4.91-3.72-5.85-6.66-.9-2.94-1.43-5.98-1.59-9.06-.05-.51-.09-.97-.13-1.42-.53-5.34-1.02-10.67-1.38-14.71-.96-10.71-1.77-21.29-2.41-31.43-1.34-21.35-2.16-42.38-2.44-62.51-.3-21.25,0-42.29,.87-62.54,.84-19.73,2.07-39.43,3.64-58.57l.38-4.5c.28-3.33,.55-6.77,.81-10.09v-.03c.96-12.36,1.95-25.15,4.09-37.45-5.53-2.32-10.8-5.23-15.72-8.67-4.75-3.25-8.62-7.63-11.26-12.74-3.02-5.71-3.33-12.47-.85-18.44,1.19-2.82,2.81-5.43,4.81-7.75,2.08-2.43,4.41-4.63,6.96-6.56-.1-1.29,0-2.59,.28-3.85,2.96-12.79,7.89-25.39,12.66-37.57,4.87-12.39,10.24-24.53,15.96-36.08,11.76-23.65,25.58-46.22,41.29-67.45,15.71-21.23,33.22-41.08,52.34-59.3,18.97-18.24,39.69-34.57,61.86-48.75,10.95-6.96,22.26-13.31,33.9-19.03l1.72-.84c7.87-3.82,17.04-8.08,26.25-10.32,.9-.67,1.86-1.34,2.85-1.99,1.09-.72,2.37-1.1,3.67-1.1,1.36,.01,2.69,.37,3.87,1.05,1.19,.66,2.2,1.61,2.93,2.77,1.1-.84,2.29-1.55,3.55-2.12l1.33-.61c5.65-2.54,13.06-5.46,20.37-5.46,2.11-.01,4.21,.26,6.24,.8,5.37,1.47,9.71,5.42,11.69,10.63,4.49-2.3,8.85-4.87,13.03-7.7,6.82-4.84,13.05-10.45,18.58-16.73,5.54-6.11,10.33-12.86,14.26-20.11,3.91-7.26,6.81-15.02,8.61-23.06,.4-2.1,1.56-3.98,3.27-5.27,1.57-1.11,3.45-1.68,5.37-1.65,1.67,0,3.32,.38,4.83,1.08,1.51,.69,2.84,1.74,3.86,3.05,1.73,2.27,2.24,5.23,1.39,7.95-2.58,9.44-6.52,18.45-11.69,26.76-5.13,8.33-11.58,15.77-19.1,22.04-6.14,5.07-12.86,9.38-20.02,12.86-7.24,3.6-15.05,5.92-23.08,6.86,.77,.75,1.55,1.55,2.3,2.32h0c.67,.7,1.36,1.41,2.06,2.1,3.35,3.3,6.88,6.42,10.55,9.36,7.43,6.12,15.43,11.52,23.88,16.13,6.47,3.47,13.18,6.48,20.07,9.01,6.81,2.5,13.77,4.55,20.84,6.14,14.17,3.14,28.65,4.69,43.16,4.63,8.91-.02,17.82-.53,26.67-1.53,9.11-.98,18.16-2.41,27.12-4.31,8.96-1.88,17.76-4.47,26.31-7.75,7.95-3.02,15.46-7.11,22.3-12.16l1.77-1.33c4.01-3.03,8.4-6.66,10.52-10.61-.63,.14-1.28,.21-1.93,.21-2.79,0-6.1-1.21-9.84-3.61-2.91-1.94-5.66-4.1-8.24-6.46-5.16-4.75-9.44-10.37-12.64-16.61-3.27-6.16-5.45-12.83-6.47-19.73-.49-3.44-.58-6.93-.27-10.39,.31-3.43,1.13-6.79,2.41-9.99,.12-.33,.43-.55,.78-.56,.43,0,.77,.35,.79,.78,.64,7.31,2.22,14.51,4.7,21.42,1.26,3.38,2.85,6.63,4.73,9.71,1.95,3.17,4.25,6.12,6.84,8.8,4.78,4.93,10.42,8.94,16.65,11.84l.87,.4c2.71,1.25,5.45,2.69,6.55,5.28,.12-.01,.25-.02,.37-.02,.3,0,.61,.04,.9,.12,.34,.09,.67,.2,1.04,.33-.79-1.61-1.15-3.39-1.06-5.18,0-1.74,.72-3.41,2-4.59,1.16-1,2.65-1.54,4.18-1.52,1.41,0,2.79,.43,3.93,1.26,1.23,.91,2.08,2.25,2.38,3.75-.08-.25-.17-.41-.25-.41-.04,0-.07,.04-.08,.1-.02,.25,.14,.48,.39,.56h0c.03,.13,.05,.26,.06,.39v.18s0-.15,0-.15c0-.09-.02-.19-.04-.29l-.02-.13c.13,.06,.26,.08,.4,.08l.07,.03c.1,.04,.28,.13,.5,.22h0c.34,.16,.73,.33,.89,.4,1.02,.35,2.06,.62,3.11,.82,.83,.18,1.7,.36,2.51,.62,4.46,1.37,7.69,3.56,9.89,6.68,1.69,2.46,2.75,5.28,3.11,8.24,8.82,4.23,17.32,9.1,25.43,14.58,8.09,5.47,15.69,11.64,22.7,18.44,7.72,7.56,14.94,15.6,21.64,24.07,6.66,8.45,12.88,17.24,18.63,26.34,10.4,16.41,20.31,35.1,30.29,57.14,8.62,19.03,16.23,38.11,25.02,60.9l1.24,3.23c6.64,17.28,9.57,26.9,11.37,33.34,3.27,11.29,5.41,22.87,6.41,34.58,.14,2.07-.48,4.12-1.74,5.76,.44,1.73,.63,3.51,.59,5.3-.01,.3-.03,.59-.05,.81h.17c3.06,0,5.7,1.47,8.09,4.48,.56-.18,1.14-.27,1.72-.27,.56,0,1.12,.09,1.65,.26,6.53,2.09,7.92,8.99,9.15,15.08,.08,.39,.16,.78,.23,1.16,1.32,6.61,1.97,13.34,1.95,20.09-.02,1.31-.36,2.6-.98,3.76-.59,1.18-1.55,2.14-2.74,2.72-2.58,1.14-5.33,2.06-7.98,2.95-1.88,.63-3.82,1.29-5.71,2.02-3.52,1.36-6.99,2.62-10.31,3.74,1.28,2.57,2.19,5.31,2.71,8.14h0c.28,1.21,.55,2.35,.86,3.41,1.55,5.25,2.88,10.71,4.04,16.68,4.16,21.41,7.67,43.32,11.07,64.5,2.68,16.75,5.46,34.07,8.54,51.04,3.59,19.83,7.75,39.27,11.69,57.49,2.11,9.71,4.31,19.17,6.54,28.12,1.25,5,2.54,10.02,3.86,14.91,.37,1.38,.75,2.79,1.17,4.33l.7,2.52c1.6,.88,2.9,2.22,3.72,3.85,1.59,2.94,1.99,6.37,1.15,9.6-.43,1.54-1.17,2.97-2.16,4.22-1.07,1.34-2.4,2.45-3.89,3.29-1.83,1.05-3.91,1.6-6.02,1.6-5.31-.2-10.15-3.11-12.81-7.71-2.03-3.41-3.01-7.62-3.95-11.7h0c-.3-1.29-.58-2.49-.89-3.66-1.39-5.23-2.78-10.73-4.25-16.8-4.43-18.29-8.28-37.14-11.76-57.6-3.09-18.17-5.81-37.21-8.33-58.22l-.33-2.78c-2.29-19.34-4.65-39.93-6.14-60.26-.78-10.63-1.33-20.34-1.67-29.69-.18-5.13,.11-10.31,.4-15.32,.04-.75,.1-1.54,.14-2.23h0c.1-1.47,.2-2.98,.25-4.47l.02-.32v-.03c.02-.21,.04-.5,.06-.8l.02-.38c-6.58,2.06-13.64,3.9-20.97,5.48-12.37,2.8-25,4.27-37.69,4.38-2.72,0-5.45-.08-8.09-.24,2.35,27.92,5.24,52.77,8.83,75.97,3.74,24.13,8.11,48.53,13,72.53,2.34,11.56,4.92,23.39,7.89,36.17,.55,2.37,1.15,4.77,1.72,7.1h0c.98,3.98,1.99,8.08,2.84,12.15,.82,3.96,1.02,7.12-.56,10.64,1.33,3.61,2.54,7.23,3.71,10.73h0s.01,.04,.01,.04c.39,1.15,.78,2.33,1.17,3.48l.46,1.36c.51,1.48,1.11,3,1.69,4.46,1.41,3.15,2.43,6.45,3.04,9.85,.24,1.63,.19,3.28-.12,4.89-.36,1.74-1.08,3.39-2.1,4.84-2.74,3.95-7.19,6.37-12,6.52l-.09,.05h0c-.05,.03-.11,.07-.17,.1-1.65,.87-3.49,1.32-5.36,1.3-.91,0-1.81-.1-2.7-.28-4.82,.95-8.77,1.68-12.42,2.3-9.8,1.69-19.9,3.15-30.87,4.46-17.84,2.12-37.2,3.54-59.2,4.33-15.28,.55-31.57,.82-49.8,.82-23.14,0-46.67-.43-69.43-.85h-.12c-22.76-.42-46.3-.86-69.45-.86-10.11,0-19.41,.08-28.45,.24-33.62,.61-69.8,2.09-110.61,4.53-4.28,.26-8.8,.53-12.42,.75-14.01,.85-28.49,1.73-42.74,2.44l-5.69,.28c-8.79,.41-19.05,.86-29.28,.86Zm497.81-312.46c.64,9.69,1.34,19.2,2.08,28.26l10.62-2.44c10.23-2.35,21.1-4.9,31.72-7.97,7.21-2.09,14.83-4.65,23.3-7.83,4.29-1.61,8.2-3.19,11.95-4.83,1.92-.87,3.8-1.84,5.62-2.91l1.55-.88c-.36-4.21-1.02-8.39-1.98-12.5-.29-1.27-.7-2.59-1.11-3.87-.29-.93-.6-1.9-.85-2.85-.55,.16-1.11,.24-1.68,.24-.23,0-.47-.01-.7-.04,.26,.03,.39,.09,.4,.16,.03,.22-.9,.58-1.72,.9-.41,.16-.79,.31-1.02,.42l-.06,.03c-1.57,.9-3.05,1.71-4.54,2.49-3.27,1.72-6.84,3.41-10.93,5.16-7.3,3.09-14.87,5.51-22.61,7.25-7.65,1.72-15.46,2.68-23.3,2.87-.68,.01-1.36,.02-2,.02-4.97,.11-9.93-.45-14.75-1.69Zm-657.04-53.18h0l-.28,.56c-2.23,4.57-3.16,8.48-2.85,11.94,.17,1.98,.8,3.89,1.84,5.58,1.27,1.99,2.95,3.69,4.92,4.98,4.12,2.78,8.45,5.23,12.96,7.32,6.49,3.09,13.33,5.7,19.94,8.22,1.64,.62,3.33,1.27,4.97,1.91l1.62,.63c15.83,6.21,30.37,11.21,44.43,15.29,7.84,2.27,15.61,4.25,23.08,5.91,7.94,1.76,15.82,3.2,23.43,4.29,6.37,.9,13.09,1.59,20,2.03,.1-8.04,.07-16.22,.04-24.13v-.02c0-.95,0-1.91,0-2.86-.82-.1-1.65-.21-2.46-.32-1.51-.2-3.06-.4-4.56-.58-7.35-.86-14.13-1.85-20.74-3.03-14.38-2.57-28.57-6.13-42.46-10.66-12.76-4.18-25.19-9.32-37.18-15.36-11.95-6.04-23.43-12.99-34.33-20.77-.58,2.15-1.53,4.18-2.81,6-1.28,1.79-3.18,3.02-5.33,3.46-.53,.11-1.07,.17-1.62,.18-.9,0-1.8-.19-2.61-.59h0Zm283.46-288.66c-4.61,.12-9.15,1.14-13.38,2.98-2.1,.9-4.26,1.82-6.32,2.94l-.4,.22c-2.39,1.37-2.35,2.21-1.2,4.91,1.58,3.51,3.41,6.9,5.47,10.15l.14,.24c8.66,14.21,19.72,26.81,32.7,37.24,8.64,7.02,17.92,13.21,27.73,18.47,9.88,5.3,20.2,9.74,30.84,13.27,10.7,3.55,21.67,6.23,32.8,8.01,11.12,1.78,22.36,2.68,33.62,2.68h0c14.47,.02,28.91-1.51,43.05-4.57,13.73-2.93,27.05-7.54,39.65-13.73,12.61-6.18,24.16-14.3,34.23-24.08l1.83-1.82c4.64-4.43,8.85-9.29,12.58-14.5,1.84-2.64,3.35-5.5,4.49-8.51,1.09-2.85,1.57-5.88,1.42-8.93,.03-2.04-1-3.95-2.72-5.05-1.77-.93-3.68-1.56-5.66-1.85-.51-.11-1.03-.22-1.54-.34-1.92-.42-3.78-1.1-5.51-2.03,.29,1.56,.16,3.17-.39,4.67-.6,1.76-1.41,3.43-2.42,4.99-1.87,2.92-4.06,5.61-6.53,8.05-7.71,7.39-16.67,13.35-26.46,17.62-9.23,4.08-18.83,7.27-28.66,9.52-9.84,2.26-19.79,3.99-29.81,5.17-9.83,1.23-19.73,1.86-29.64,1.87-12.97,.03-25.91-1.14-38.66-3.47-9.84-1.81-19.5-4.47-28.87-7.95-9.38-3.48-18.37-7.92-26.83-13.25-7.87-4.83-15.17-10.53-21.77-17l-1.37-1.38c-2.22-2.25-4.78-4.89-7.12-7.74-2.29-2.68-4.21-5.66-5.72-8.85h-.39c-.92,0-1.85-.03-2.77-.09-.38-.03-.69-.31-.77-.68-.08-.32,.08-.66,.37-.8,.79-.42,1.63-.86,2.49-1.31-.15-.51-.27-.95-.36-1.37-.03-.15,0-.3,.11-.42,.09-.11,.22-.18,.36-.18,.08,0,.16,.02,.23,.07,.47,.28,.94,.59,1.45,.96,.13-.06,.26-.13,.39-.2-2.46-2.6-6.06-3.93-10.68-3.93Z"/>
    </g>
    <g id="head_Shaved_2" data-name="head Shaved 2">
      <g id="_Skin-118" data-name=" Skin-118">
        <path id="_Skin-119" data-name=" Skin-119" class="cls-2" d="M876.95,541.57c-7.08-25.5-6.07-28.25-16.61-52.61-34.98-70.75-268.74-47.06-292.6,23.56-12.94,38.31-9.9,92.27-13.27,125.5-1.03,17.61-2.06,35.23-3.09,52.84-.36,6.08-.73,12.17-1.1,18.25-.73,11.84-1.43,23.68-2.1,35.52-4.4,36.49,13.94,40.2,45.39,39.12,8.31,20.06,21.78,36.81,38.42,50.43-4.01,10.92,10.54,16.58,18.4,20.94,42.73,23.86,95.22,38.42,142.56,25,13.91-3.94,71.34-17.6,89-59.86,8.67-20.76,26.3-128.24,3.05-224.93l-8.05-53.77Z"/>
        <path id="_Skin-120" data-name=" Skin-120" class="cls-1" d="M876.95,541.57c-7.08-25.5-6.07-28.25-16.61-52.61-34.98-70.75-268.74-47.06-292.6,23.56-12.94,38.31-9.9,92.27-13.27,125.5-1.03,17.61-2.06,35.23-3.09,52.84-.36,6.08-.73,12.17-1.1,18.25-.73,11.84-1.43,23.68-2.1,35.52-4.4,36.49,13.94,40.2,45.39,39.12,8.31,20.06,21.78,36.81,38.42,50.43-4.01,10.92,10.54,16.58,18.4,20.94,42.73,23.86,95.22,38.42,142.56,25,13.91-3.94,71.34-17.6,89-59.86,8.67-20.76,26.3-128.24,3.05-224.93l-8.05-53.77Z"/>
      </g>
    </g>
    <path id="_Ink-45" data-name=" Ink-45" d="M779.32,870.82c-6.37-.01-12.73-.48-19.03-1.4-7.33-.98-14.53-2.72-21.49-5.2-3.59-1.29-6.98-3.08-10.07-5.32-3.05-2.27-5.81-4.91-8.2-7.87-1.35-1.83-1.61-4.24-.68-6.32,.61-1.46,2.05-2.39,3.63-2.36,.21,0,.42,.01,.62,.04,7.12,.74,14.16,2.12,21.02,4.12l1,.32c7,2.3,14.22,3.85,21.54,4.62,3.69,.36,7.44,.54,11.13,.54,11.32,.02,22.58-1.69,33.38-5.09,5.83-1.86,11.47-4.26,16.84-7.18,5.37-2.92,10.48-6.31,15.26-10.13,9.57-7.66,17.77-16.89,24.25-27.3,7.02-11.27,11.67-24.01,14.23-38.96,2.45-14.36,2.68-29.15,2.58-41.72-.23-29.89-1.2-61.17-2.89-92.95l-.28-5.16c-.71-13.09-1.64-30.35-2.45-47.81-.27-5.85-.65-10.62-1.21-15.03-5.86-3.3-10.79-8.05-14.31-13.79-6.64,2.66-13.47,4.81-20.44,6.43-9.55,2.36-19.35,3.57-29.19,3.59-5.75,0-11.49-.43-17.18-1.28-4.14,1.71-8.42,3.24-12.73,4.54-1.2,.53-2.37,1.04-3.5,1.52-10.34,4.5-21.01,8.17-31.93,10.98l-2.7,.67c-5.96,1.6-12.05,2.69-18.2,3.27-1.07,.41-2.17,.74-3.29,1.01-4.13,1-8.36,1.5-12.61,1.5-1.51,0-3.03-.06-4.54-.19-2.87-.21-5.43-1.87-6.81-4.39-.55-1.04-.82-2.19-.8-3.36,.03-1.29,.4-2.55,1.06-3.66,2.22-3.81,4.51-7.7,6.81-11.55-7.99,3.3-16.17,6.11-24.5,8.42-7.39,2.08-15.46,4.05-25.39,6.18-2.25,.48-4.55,.94-6.77,1.39h-.02c-2.25,.45-4.59,.92-6.87,1.41-.72,.15-1.53,.29-2.39,.44-3.02,.51-6.44,1.09-8.5,2.75-2.27,1.82-3.26,5.46-4.14,8.68-.25,.91-.48,1.77-.73,2.53-1.56,4.68-2.89,9.01-4.08,13.26-2.49,8.91-4.52,17.94-6.1,27.05-1.57,9.14-2.65,18.35-3.23,27.6-.24,3.81-.34,7.69-.44,11.45-.14,5.35-.28,10.88-.84,16.29-.14,1.53-.83,2.96-1.93,4.02-1.02,.97-2.37,1.52-3.78,1.53-1.45-.02-2.85-.58-3.92-1.57-.44-.39-.9-.8-1.36-1.21l-.68-.62c-3.37-2.95-6.44-6.22-9.17-9.76-.47-.65-.93-1.34-1.37-2.05-.07,0-.14-.02-.2-.07l-.73-.55c-7.71-5.74-14.35-8.65-19.73-8.65-3.83-.07-7.46,1.71-9.76,4.79-2.57,3.26-3.86,7.47-4.87,11.16l-1.87,7c-1.27,4.55-2.28,9.18-3.02,13.85-.85,5.39-.86,10.87-.04,16.26,.77,5.4,3.02,10.49,6.5,14.7,2.86,3.43,6.87,5.7,11.28,6.39,.65,.09,1.3,.13,1.95,.13,1.5-.03,2.99-.17,4.47-.39h.03c.3-.04,.61-.08,.91-.12,.62-.07,1.25-.11,1.87-.11,.66,0,1.33,.03,1.98,.06h0c.65,.03,1.32,.06,1.99,.06,.56,0,1.06-.02,1.54-.07,.15-.02,.31-.02,.45-.02,1.42,0,2.74,.75,3.45,1.98,.99,1.63,1.11,3.64,.31,5.37-.74,1.51-1.69,2.9-2.81,4.15,.87,.75,1.69,1.54,2.47,2.38,2.42,.84,4.52,2.41,6.01,4.49,1.22,1.61,1.93,3.55,2.04,5.56,.13,.45,.25,.92,.37,1.5l2.15,3.48c.53,.85,.99,1.59,1.41,2.26,5.28,8.42,11.69,16.07,19.05,22.74,2.68,2.44,5.5,4.83,8.22,7.14,4.78,3.92,19.35,8.07,23.71,12.45l.8,.84c3.35,3.3,6.24,7.05,8.59,11.12,2.44,4.62,3.09,9.01,1.97,13.4-.61,1.91-2.36,3.23-4.37,3.27-.73,0-1.45-.23-2.04-.66-4.38-3.25-7.53-7.73-10.57-12.06-2.02-3.02-6.03,.15-8.46-2.55-3.24-3.45-14.94-12.82-18.3-16.03h0c-3.27-3.13-6.65-6.36-9.82-9.7-6-6.35-10.89-13.66-14.47-21.63-2.15,2.08-5.02,3.26-8.02,3.28-2.16-.01-4.26-.66-6.05-1.86-1.8-1.19-3.25-2.84-4.22-4.77-1.39,.63-2.82,1.17-4.27,1.62-.81,.25-1.66,.39-2.52,.39-2.58-.02-4.97-1.38-6.3-3.59-.84-1.33-1.35-2.84-1.48-4.4-.15-1.62,.13-3.25,.8-4.74,1.42-3.21,3.38-6.15,5.81-8.68-7.44-1.11-14.35-4.47-19.82-9.63-5.83-5.87-9.74-13.39-11.19-21.54-.79-4.05-1.16-8.16-1.1-12.28,.05-4.12,.44-8.23,1.15-12.29,1.51-8.61,3.94-17.02,7.25-25.11,.63-1.53,1.23-2.9,1.85-4.17-.38,0-.75-.18-.99-.48-.76-1.03-1.58-2.01-2.37-2.96-1.63-1.79-3.03-3.77-4.17-5.91-.33-.68-.68-1.38-1.01-2.05-1.25-2.41-2.38-4.89-3.37-7.42-2.62-7.06-3.75-14.96-4.45-21.06-1.54-14.24-1.14-28.62,1.18-42.75,1.87-12.08,5.03-23.92,9.43-35.32,4.38-11.36,9.93-22.22,16.58-32.41-.73-.39-1.42-.85-2.06-1.38l-.32-.28-.52-.47c-1.72-1.61-2.71-3.86-2.72-6.22-.08-2.63,.9-5.19,2.72-7.1l1.09-1.1c1.46-1.49,3.07-2.82,4.81-3.96,.32-.22,.66-.43,1.01-.62-1.26-2.28-1.54-4.99-.76-7.48,.75-2.65,2.56-4.87,5-6.13,2.58-1.28,5.43-1.91,8.3-1.83,4.28,.04,8.5,1,12.38,2.82,9.85-8.81,20.75-16.36,32.46-22.49,14.26-7.37,29.07-13.62,44.29-18.69,15.22-5.1,30.74-9.25,46.48-12.4,13.77-2.93,27.79-4.48,41.86-4.62,1.92,0,3.84,.04,5.71,.1l1.23,.05c6.5,.16,12.98,.77,19.4,1.82,7.59,1.38,13.56,3.56,18.25,6.69,.42-.43,1-.68,1.6-.69,.29,0,.58,.07,.85,.19,11.52,5.5,24.12,9.59,36.3,13.55l2.9,.94c13.04,4.27,26.54,7.02,40.21,8.18,1.43,.13,2.81,.62,3.99,1.44,1.16,.78,2.11,1.85,2.73,3.1,1.04,2.06,.87,4.52-.44,6.41-.8,1.23-1.57,2.45-2.28,3.59l1.13-.12h0c.86-.09,1.75-.19,2.63-.27,.18-.02,.36-.03,.55-.03,2.01,.09,3.9,.99,5.22,2.5,1.46,1.47,2.27,3.47,2.25,5.55-.15,2.51-.43,5.02-.83,7.5h.29c1.5-.01,2.98,.27,4.36,.85,3.41,1.44,5.49,4.14,6.36,8.26,.73,3.45,.49,7.34,.19,11.04-.87,10.53-4.91,20.38-11.08,27.03,2.48,2.57,4.63,5.45,6.4,8.55,1.81,3.21,3.23,6.63,4.24,10.18,1.63,5.4,2.29,11.05,1.96,16.68l-.13,1.67c-.55,6.38-1.64,12.87-5.92,17.15-1.75,1.82-4.17,2.85-6.69,2.86-.31,0-.63-.02-.94-.05,1.6,14.08,2.64,28.49,3.57,42.05l.45,6.7c1.24,18.82,2.08,34.29,2.62,48.68,.67,17.64,.9,33.58,.7,48.72-.08,7.52-.56,15.03-1.45,22.5-.88,7.36-2.29,14.64-4.21,21.8-1.92,7.12-4.47,14.06-7.62,20.73-3.23,6.81-7.15,13.28-11.69,19.3-4.23,5.59-8.92,10.82-14.02,15.64-5.08,4.8-10.57,9.15-16.39,13.02-5.82,3.86-11.97,7.21-18.37,9.99-6.44,2.79-13.12,4.99-19.96,6.55-8.5,1.92-17.2,2.89-25.92,2.87Zm-187.31-152.47h-.17c-2.56-.08-5-1.06-6.9-2.78-1.88-1.76-3.55-3.72-5-5.84-.51-.68-1.03-1.39-1.55-2.07-.42,.78-.99,1.47-1.67,2.04l-.46,.36c-1.4,1.22-3.17,1.93-5.03,2.04-.09,0-.18,0-.27,0-1.44-.06-2.84-.44-4.12-1.11-1.57-.87-2.78-2.28-3.4-3.97-1.46-3.69-.2-7.89,3.06-10.16l-.6-.41c-1.33-.85-2.48-1.95-3.39-3.24l-.21-.33h.08c-.92-1.53-.43-3.53,1.11-4.45,.24-.14,.49-.25,.76-.33,.98-.31,1.99-.46,3.02-.45,4.24,0,8.95,2.19,12.74,3.95,.38,.18,.77,.36,1.15,.53,6.04,2.77,11.24,6.96,15.97,11.07,2.15,1.87,3,5.1,2.28,8.63l-.04,.18c-.05,.24-.1,.49-.15,.74-.38,1.61-1.33,3.02-2.67,3.98-1.3,1.01-2.89,1.59-4.53,1.63Z"/>
    <g id="facial-hair_Chin" data-name="facial-hair Chin">
      <path id="_Ink" data-name=" Ink" d="M819.07,848.81s-44.39,6.52-64.26-2.7c-19.81-9.19-39.08-18.08-57.05-30.25-18.41-12.47-34.03-27.28-45.18-46.23-10.37-17.64-18.99-36.35-27.67-54.93-.51-1.08-5.49-11.88-7.25-15.49-2.71-5.61-10.63-3.85-10.63,4.86s-.39,74.66,14.83,100.6c13.73,23.43,37,39.8,60.12,54.09,25.58,15.8,59.56,32.88,90.08,37.39,27.62,4.08,59.14-7.38,79.14-26.27,20.91-19.76,26.83-46.6,37.62-72.3,2.41-5.75-6.13-9.21-8.64-3.56-4.72,10.65-61.11,54.79-61.11,54.79Z"/>
    </g>
    <g id="facial-hair_Goatee_1" data-name="facial-hair Goatee 1">
      <path id="_Ink-6" data-name=" Ink-6" d="M818,835c.71,.75,3.87,2.49,3,2,1,0,3.02,.55,4.76,.59,.49,0,.98-.06,1.45-.18,3.81-.93,10.09-5.21,16.17-9.36,3.97-2.71,7.72-5.27,10.72-6.87,1.75-.53,3.56-.82,5.39-.86,2.71,0,4.77,.82,6.12,2.45,1.74,2.09,2.25,5.46,1.46,9.73-.34,1.87-2.79,6.61-6.53,12.69-2.62,4.43-5.57,8.65-8.82,12.64-3.37,3.61-7.16,6.81-11.27,9.54-4.13,2.75-8.54,5.06-13.15,6.9-9.26,3.69-19.14,5.59-29.11,5.6h0c-4.86,0-9.71-.47-14.48-1.42-6.68-.69-13.28-1.94-19.75-3.75-7.28-1.91-15.21-4.4-22.94-7.22-6.82-2.43-13.5-5.23-20.01-8.38-5.78-2.87-9.57-5.38-10.96-7.25-.44-.48-.65-1.12-.58-1.76,.91-4.13,2.39-7.03,4.53-8.88,2-1.65,4.53-2.49,7.11-2.37,3.97,0,8.5,1.42,12.87,2.8,2.32,.73,4.73,1.49,6.95,1.99,10.2,1.73,20.52,2.58,30.86,2.55,13.57-2.95,11.11-4.25,10.19-12.27h0c-.1-.91-.19-1.62-.23-2.13-.17-2.73,.15-5.46,.94-8.07,.83-2.9,2.27-5.6,4.23-7.9,2.76-3.22,6.73-5.14,10.96-5.31,.25-.01,.51-.02,.76-.02,2.67,0,5.28,.82,7.45,2.38,2.08,1.53,3.82,3.46,5.13,5.68,2.26,3.81,3.79,8,4.49,12.38m37.14-48.65h0c-4.63,0-8.09-1.69-12.1-3.65-3.24-1.7-6.64-3.06-10.16-4.05-4.3-1.13-8.96-2.12-13.48-3.07-8.53-1.8-16.59-3.51-21.03-5.95-8.7,4.94-18.4,6.43-27.77,7.88h-.01l-1.91,.3c-5.13,.96-10.19,2.29-15.12,3.98-7.01,2.21-14.26,4.49-20.8,4.49-.63,0-1.26-.02-1.86-.06-.15,.06-.32,.09-.49,.08-1.47,0-4.6-1.39-6.66-4.38-1.22-1.8-1.93-3.89-2.07-6.06-.15-3.12,.4-6.24,1.6-9.13,1.37-3.46,3.39-6.63,5.94-9.34,2.73-2.9,5.84-5.42,9.23-7.51,7.4-4.46,15.46-7.71,23.88-9.62,8.07-2.09,16.36-3.24,24.7-3.43,5.62,0,10.21,.78,13.64,2.33,3.8-1.23,7.79-1.82,11.78-1.73,6.91,.09,13.78,1.19,20.38,3.27,6.76,2,13.12,5.16,18.8,9.33,2.39,1.86,4.48,4.08,6.19,6.58,1.75,2.52,3.2,5.24,4.3,8.11,1.05,2.67,1.76,5.47,2.13,8.32,.34,2.4,.22,4.85-.34,7.21-.93,3.47-3.05,5.53-6.15,5.93-.87,.12-1.75,.18-2.63,.18Z"/>
    </g>
    <g id="face_Smile" data-name="face Smile">
      <path id="_Ink-22" data-name=" Ink-22" d="M795.38,788.8c-4.96-.01-9.86-.99-14.45-2.88-3.37-1.38-6.54-3.2-9.43-5.42-2.9-2.22-5.48-4.83-7.68-7.74-1.36-1.73-1.94-3.96-1.6-6.14,.4-2.22,1.63-4.2,3.44-5.55,1.45-1.11,3.22-1.73,5.05-1.76,.38,0,.75,.03,1.13,.09,2.15,.37,4.04,1.62,5.22,3.45l.31,.43c2.57,3.52,5.96,6.36,9.88,8.29,3.05,1.49,6.4,2.28,9.79,2.29,.81,0,1.62-.05,2.43-.14,3.83-.43,7.52-1.73,10.78-3.79,3.33-2.17,6.4-4.73,9.13-7.62,.65-.67,1.35-1.39,2.24-2.35,.44-.68,1.1-1.18,1.86-1.43,.39-.13,.8-.19,1.21-.19,1.35,0,2.61,.66,3.38,1.76,.5,.73,.72,1.6,.64,2.48-.29,3.09-1.21,6.09-2.7,8.82-1.52,2.76-3.46,5.27-5.77,7.41-2.61,2.44-5.55,4.5-8.74,6.1-3.06,1.56-6.33,2.68-9.7,3.33-2.12,.39-4.28,.58-6.44,.58Zm10.17-57.58h0c-4.27-.07-8.49-.92-12.45-2.51-5.23-2.1-10.15-4.89-14.64-8.31-1.04-.81-1.76-1.96-2.04-3.25-.24-1.22-.14-2.48,.29-3.65,.49-1.38,1.34-2.61,2.46-3.56,1.06-.94,2.42-1.47,3.84-1.5,1.06,0,2.09,.33,2.97,.91,.32,.24,.65,.5,.99,.76h.01c2.9,2.35,5.96,4.47,9.17,6.38,4.14,2.36,7.73,3.5,10.98,3.5,1.59,.01,3.17-.3,4.64-.91,1.64-.71,3.11-1.75,4.32-3.06,2.34-3.03,3.26-6.92,2.51-10.67-.88-3.59-2.73-6.86-5.35-9.46-2.4-2.53-5.12-4.73-8.1-6.54-.83-.71-1.11-1.88-.68-2.89,.23-.71,.66-1.34,1.25-1.8,.69-.53,1.53-.8,2.39-.79,.29,0,.58,.03,.86,.08,3.37,.54,6.61,1.71,9.55,3.45,2.52,1.52,4.71,3.53,6.42,5.92,3.19,4.59,4.64,10.16,4.1,15.72-.24,2.85-.95,5.63-2.1,8.25-1.14,2.63-2.75,5.03-4.73,7.09-4.37,4.49-10.41,6.96-16.67,6.84Zm-116.88-87.07c-.45-.02-.86-.27-1.08-.66-.28-.43-.31-.97-.09-1.42,2.81-5.3,6.55-10.04,11.06-14,4.47-4.01,9.44-7.41,14.8-10.11,5.53-2.9,11.45-4.96,17.58-6.14l1.88-.33c2.53-.49,5.1-.77,7.67-.83,4.28,0,7.38,1.16,9.47,3.53,1.35,1.59,2.03,3.63,1.9,5.71-.09,1.46-.77,2.81-1.9,3.74-3.01,2.43-6.17,2.93-10,2.93-.79,0-1.6-.02-2.39-.04h-.03c-.76-.02-1.62-.04-2.47-.04-.78,0-1.49,.02-2.14,.06-5.04,.29-10.03,1.14-14.88,2.54-10.58,3.02-19.26,8.51-28.69,14.84-.2,.14-.44,.22-.69,.23Zm181.03-7.57h0c-.27-.06-.54-.13-.79-.2-3-.82-5.91-1.96-8.68-3.39l-2.82-1.39c-3.25-1.66-6.62-3.1-10.07-4.29-7.46-2.44-15.14-4.14-22.93-5.06-1.66-.16-3.25-.76-4.6-1.75-1.29-.97-2.2-2.35-2.57-3.92-.62-1.98-.33-4.13,.79-5.87,.83-1.41,2.11-2.51,3.63-3.13,.99-.4,2.04-.6,3.1-.59,.6,0,1.2,.06,1.79,.18l1.44,.29c9.98,2.09,18.08,4.72,24.77,8.04,3.93,1.9,7.59,4.31,10.89,7.16,3.2,2.77,5.82,6.15,7.7,9.95,.27,2.08,.02,2.59-.26,2.94l-.08,.1s-.05,.06-.07,.1c-.29,.42-.73,.71-1.23,.82h0Z"/>
    </g>
    <path d="M698.66,685.11c-.99-.04-1.85-.67-2.2-1.6-.27-.71-.03-1.5,.57-1.95,4.34-3.53,9.03-6.62,13.98-9.22,5-2.66,10.23-4.87,15.62-6.61-.77-1.24-1.27-2.63-1.45-4.08-.19-1.42-.03-2.87,.49-4.21,.17-.58,.39-1.13,.58-1.6l.44-1.08c.04-.51,.14-1.02,.28-1.51l.02-.15h.01c.4-1.28,1.1-2.45,2.04-3.42,.94-.98,2.12-1.69,3.42-2.06,.65-.18,1.32-.27,1.99-.27,1.05,0,2.09,.22,3.06,.63,1.73,.34,3.33,1.17,4.59,2.4,1.28,1.21,2.23,2.72,2.76,4.4,.08,.28,.17,.57,.27,.84l.15,.42-.41-1.05c.15,.61,.39,1.2,.71,1.74,.25,.46,.47,.94,.63,1.43,.37,1.35,.48,2.75,.34,4.14,1.27,.01,2.32,.06,3.29,.14l1.06,.09c5.87,.55,12.42,1.56,15.94,6.68,.51,.77,.79,1.68,.8,2.61,.02,.97-.16,1.92-.55,2.81-.62,1.64-2.03,2.84-3.75,3.19-.65,.1-1.32,.15-1.98,.15-2.62-.12-5.21-.63-7.67-1.52-2.05-.68-4.15-1.18-6.29-1.48-1.78-.2-3.58-.29-5.37-.29-3.54,.01-7.08,.34-10.57,.99-6.28,1.3-12.47,3.03-18.51,5.18-4.06,1.34-8.25,2.73-12.47,3.83l-1.42,.36h0c-.14,.03-.28,.04-.42,.04Z"/>
    <path d="M864.99,676.71c-1.65,.04-3.15-.91-3.82-2.42l-.1-.21c-1.26-2.93-4.71-4.41-10.26-4.41-1.66,.01-3.32,.12-4.98,.32-3.15,.43-6.26,1.1-9.3,2.03-1.11,.32-2.19,.66-3.2,.99l-1.06,.35c-.47,.15-2.31,1.14-2.27,1.4,0,.04,.06,.06,.16,.06,.14,0,.29-.03,.43-.06,.03,0,.07-.01,.1-.01,.24,0,.44,.18,.49,.41,.05,.19-.05,.38-.23,.46-.37,.18-.78,.28-1.2,.28-.84-.02-1.64-.39-2.2-1.01-.67-.71-1.03-1.67-.97-2.65,.22-3.59,5.27-5.75,8.6-7.18,.45-.19,.87-.37,1.24-.54l.19-.08c1.23-.57,2.49-1.1,3.74-1.57-.74-1.12-1.35-2.32-1.82-3.57-.47-1.19-.79-2.43-.96-3.69-.17-.62-.17-1.28,0-1.9l.03-.18c-.09-.42-.13-.85-.12-1.28l-.02-.17h.02c.04-1.5,.63-2.94,1.65-4.04,1-1.03,2.37-1.61,3.81-1.61,1.48,.03,2.91,.55,4.07,1.46l.32,.25c2.24,1.19,4.09,2.99,5.33,5.2,1.3,1.95,2.04,4.22,2.15,6.56,6.2,.02,11.21,2.09,14.9,6.15,1.17,1.28,2.26,3.53,1.49,5.62l-.43,1.16c-1,2.32-3.25,3.84-5.77,3.9h0Z"/>
  </svg>
</svg>
