<svg xmlns="http://www.w3.org/2000/svg" version="1.1" xmlns:xlink="http://www.w3.org/1999/xlink" xmlns:svgjs="http://svgjs.dev/svgjs" width="1000" height="1000" viewBox="0 0 1000 1000"><rect width="1000" height="1000" fill="#000000"></rect><g transform="matrix(0.7,0,0,0.7,149.84897959183667,150.19913061224486)"><svg viewBox="0 0 343 343" data-background-color="#ea3c12" preserveAspectRatio="xMidYMid meet" height="999" width="1000" xmlns="http://www.w3.org/2000/svg" xmlns:xlink="http://www.w3.org/1999/xlink"><g id="tight-bounds" transform="matrix(1,0,0,1,0.0740000000000407,0.07400000000001228)"><svg viewBox="0 0 342.85155851775386 342.85155851775386" height="342.85155851775386" width="342.85155851775386"><g><svg></svg></g><g><svg viewBox="0 0 342.85155851775386 342.85155851775386" height="342.85155851775386" width="342.85155851775386"><g><path d="M0 171.426c0-94.676 76.75-171.426 171.426-171.426 94.676 0 171.426 76.75 171.426 171.426 0 94.676-76.75 171.426-171.426 171.426-94.676 0-171.426-76.75-171.426-171.426zM171.426 337.077c91.487 0 165.651-74.165 165.651-165.651 0-91.487-74.165-165.651-165.651-165.652-91.487 0-165.651 74.165-165.652 165.652 0 91.487 74.165 165.651 165.652 165.651z" data-fill-palette-color="tertiary" fill="#ffffff" stroke="transparent"></path><ellipse rx="164.56874808852186" ry="164.56874808852186" cx="171.42577925887693" cy="171.42577925887693" fill="#ffffff" stroke="transparent" stroke-width="0" fill-opacity="1" data-fill-palette-color="tertiary"></ellipse></g><g transform="matrix(1,0,0,1,64.84655864529837,96.38523379230332)"><svg viewBox="0 0 213.1584412271571 150.0810909331472" height="150.0810909331472" width="213.1584412271571"><g><svg viewBox="0 0 213.1584412271571 150.0810909331472" height="150.0810909331472" width="213.1584412271571"><g><svg viewBox="0 0 213.1584412271571 150.0810909331472" height="150.0810909331472" width="213.1584412271571"><g transform="matrix(1,0,0,1,0,86.0495616042255)"><svg viewBox="0 0 213.1584412271571 64.03152932892169" height="64.03152932892169" width="213.1584412271571"><g id="textblocktransform"><svg viewBox="0 0 213.1584412271571 64.03152932892169" height="64.03152932892169" width="213.1584412271571" id="textblock"><g><svg viewBox="0 0 213.1584412271571 64.03152932892169" height="64.03152932892169" width="213.1584412271571"><g transform="matrix(1,0,0,1,0,0)"><svg width="213.1584412271571" viewBox="2.5 -37.5 164.94000244140625 49.54999923706055" height="64.03152932892169" data-palette-color="#ea3c12"><path d="M19.75 0.5L19.75 0.5Q16.15 0.5 13.03-0.73 9.9-1.95 7.53-4.15 5.15-6.35 3.83-9.33 2.5-12.3 2.5-15.8L2.5-15.8Q2.5-19.65 4-22.88 5.5-26.1 8.15-28.5 10.8-30.9 14.2-32.2 17.6-33.5 21.35-33.5L21.35-33.5Q24-33.5 25.88-33.2 27.75-32.9 29.23-32.35 30.7-31.8 32.15-31.1L32.15-31.1 32.7-22.3 31.8-22.3 27-29.55Q25.65-30.4 24.4-30.73 23.15-31.05 21.55-31.05L21.55-31.05Q18.4-31.05 15.85-29.25 13.3-27.45 11.8-24.23 10.3-21 10.3-16.7L10.3-16.7Q10.3-12.2 11.75-8.97 13.2-5.75 15.68-4 18.15-2.25 21.2-2.25L21.2-2.25Q22.05-2.25 23.05-2.33 24.05-2.4 25.05-2.6L25.05-2.6 25.05-11.85 20.6-14.2 20.6-15 36.3-15 36.3-14.2 32.55-11.8 32.55-3.7Q31-2.4 28.83-1.48 26.65-0.55 24.28-0.03 21.9 0.5 19.75 0.5ZM41.95 12.05L41.95 12.05Q40.8 12.05 40.52 11.73 40.25 11.4 40.25 10.6L40.25 10.6 40.25 7.15 40.5 6.9 42.75 6.9Q44 6.9 44.82 6.73 45.65 6.55 46.32 5.78 47 5 47.75 3.2L47.75 3.2 49.05 0.05 39.1-20.65 36-22 36-22.8 49.8-22.8 49.8-22 46.7-20.55 46.7-20.4 52.2-8.85 52.55-8.85 56.8-20.2 56.8-20.4 53.85-22 53.85-22.8 63.4-22.8 63.4-22 59.85-20.35 49.85 3.95Q49.4 5.1 49.07 5.88 48.75 6.65 48.35 7.38 47.95 8.1 47.2 9.15L47.2 9.15Q46.2 10.6 44.72 11.33 43.25 12.05 41.95 12.05ZM75.9 0L63.15 0 63.15-0.8 66.5-2.4 66.5-17.6 63.3-19.65 63.3-20.25 72.4-23.3 73-23.3 73.45-19.6 73.7-19.6Q75.45-21.35 77.1-22.33 78.75-23.3 81.05-23.3L81.05-23.3Q83.5-23.3 85.25-22.25 87-21.2 87.55-19.1L87.55-19.1 87.75-19.1Q89.65-21.1 91.37-22.2 93.1-23.3 95.55-23.3L95.55-23.3Q98.5-23.3 100.4-21.75 102.3-20.2 102.3-17.15L102.3-17.15 102.3-2.4 105.6-0.8 105.6 0 92.7 0 92.7-0.8 95.25-2.4 95.25-15.1Q95.25-16.85 94.27-17.78 93.3-18.7 91.75-18.7L91.75-18.7Q90.65-18.7 89.6-18.3 88.55-17.9 87.8-17.15L87.8-17.15 87.8-17.15 87.8-2.4 90.3-0.8 90.3 0 78.3 0 78.3-0.8 80.75-2.4 80.75-15.1Q80.75-16.85 79.77-17.78 78.8-18.7 77.25-18.7L77.25-18.7Q76.35-18.7 75.3-18.35 74.25-18 73.5-17.4L73.5-17.4 73.5-2.4 75.9-0.8 75.9 0ZM115.04-28.25L115.04-28.25Q113.44-28.25 112.42-29.28 111.39-30.3 111.39-31.85L111.39-31.85Q111.39-33.45 112.42-34.48 113.44-35.5 115.04-35.5L115.04-35.5Q116.64-35.5 117.67-34.48 118.69-33.45 118.69-31.85L118.69-31.85Q118.69-30.3 117.67-29.28 116.64-28.25 115.04-28.25ZM121.64 0L108.29 0 108.29-0.8 111.64-2.4 111.64-17.6 108.44-19.95 108.44-20.55 118.09-23.3 118.69-23.3 118.69-2.4 121.64-0.8 121.64 0ZM139.34 0L125.09 0 125.09-0.8 128.44-2.4 128.44-20.55 124.64-20.55 124.64-22.8 128.44-22.8 128.44-24.35Q128.44-25.75 129.22-27.48 129.99-29.2 131.37-30.95 132.74-32.7 134.44-34.2 136.14-35.7 138.04-36.6 139.94-37.5 141.79-37.5L141.79-37.5Q142.34-37.5 142.92-37.35 143.49-37.2 143.89-37L143.89-37Q145.09-36.35 145.09-35.7L145.09-35.7Q145.09-35.35 144.79-34.75L144.79-34.75 143.49-32.05 143.04-32.05 142.09-32.45Q141.29-32.85 140.57-33.08 139.84-33.3 138.99-33.3L138.99-33.3Q136.79-33.3 136.14-31.63 135.49-29.95 135.49-25.9L135.49-25.9 135.49-22.8 141.39-22.8 141.39-20.55 135.49-20.55 135.49-2.35 139.34-0.8 139.34 0ZM145.99 12.05L145.99 12.05Q144.84 12.05 144.56 11.73 144.29 11.4 144.29 10.6L144.29 10.6 144.29 7.15 144.54 6.9 146.79 6.9Q148.04 6.9 148.86 6.73 149.69 6.55 150.36 5.78 151.04 5 151.79 3.2L151.79 3.2 153.09 0.05 143.14-20.65 140.04-22 140.04-22.8 153.84-22.8 153.84-22 150.74-20.55 150.74-20.4 156.24-8.85 156.59-8.85 160.84-20.2 160.84-20.4 157.89-22 157.89-22.8 167.44-22.8 167.44-22 163.89-20.35 153.89 3.95Q153.44 5.1 153.11 5.88 152.79 6.65 152.39 7.38 151.99 8.1 151.24 9.15L151.24 9.15Q150.24 10.6 148.76 11.33 147.29 12.05 145.99 12.05Z" opacity="1" transform="matrix(1,0,0,1,0,0)" fill="#000000" class="undefined-text-0" data-fill-palette-color="quaternary" id="text-0"></path></svg></g></svg></g></svg></g></svg></g><g transform="matrix(1,0,0,1,40.713262274387006,0)"><svg viewBox="0 0 131.7319166783831 70.93325428637098" height="70.93325428637098" width="131.7319166783831"><g><svg xmlns="http://www.w3.org/2000/svg" xmlns:xlink="http://www.w3.org/1999/xlink" version="1.1" x="0" y="0" viewBox="5 25.768999099731445 90 48.462005615234375" enable-background="new 0 0 100 100" xml:space="preserve" height="70.93325428637098" width="131.7319166783831" class="icon-icon-0" data-fill-palette-color="quaternary" id="icon-0"><g fill="#ea3c12" data-fill-palette-color="quaternary"><rect x="5" y="43.077" fill="#000000" width="3.462" height="13.846" data-fill-palette-color="quaternary"></rect><rect x="11.923" y="32.692" fill="#000000" width="3.462" height="34.615" data-fill-palette-color="quaternary"></rect><rect x="18.846" y="25.769" fill="#000000" width="6.924" height="48.462" data-fill-palette-color="quaternary"></rect><rect x="29.23" y="46.539" fill="#000000" width="41.539" height="6.923" data-fill-palette-color="quaternary"></rect><rect x="91.538" y="43.077" fill="#000000" width="3.462" height="13.846" data-fill-palette-color="quaternary"></rect><rect x="84.615" y="32.692" fill="#000000" width="3.462" height="34.615" data-fill-palette-color="quaternary"></rect><rect x="74.23" y="25.769" fill="#000000" width="6.924" height="48.462" data-fill-palette-color="quaternary"></rect></g></svg></g></svg></g><g></g></svg></g></svg></g></svg></g></svg></g><defs></defs></svg><rect width="342.85155851775386" height="342.85155851775386" fill="none" stroke="none" visibility="hidden"></rect></g></svg></g></svg>